<svg width="118" height="19" viewBox="0 0 118 19" fill="none" xmlns="http://www.w3.org/2000/svg">
<path fill-rule="evenodd" clip-rule="evenodd" d="M19.7478 12.8377L19.7481 12.8377C20.1098 17.5902 24.1986 18.1422 24.1986 18.1422V18.3152H18.9778V12.826C18.3566 14.7303 17.0309 16.2288 15.0038 17.3281C12.9444 18.4416 10.5214 19 7.73475 19C5.76712 19 4.11214 18.5642 2.7664 17.6993C1.42067 16.831 0.747803 15.5167 0.747803 13.7597C0.747803 10.5011 3.19459 8.87007 8.08817 8.87007H18.905C18.3443 4.48441 15.5679 2.29158 10.5825 2.29158C6.24968 2.29158 3.42908 3.73531 2.12072 6.61936L1.80468 6.33674C2.46056 4.24946 3.5786 2.67294 5.15882 1.60376C6.73564 0.534588 8.62511 0 10.8272 0C13.6818 0 15.8839 0.837635 17.4302 2.51631C18.9764 4.19498 19.7478 6.63979 19.7478 9.85412V12.8377ZM19.007 12.7554V12.7348L19.0007 12.7547L19.007 12.7554ZM15.816 15.0434C13.6852 16.1602 11.0175 16.7152 7.80951 16.7152L7.80611 16.7186C6.80021 16.7186 5.88606 16.6233 5.06707 16.436C4.24807 16.2487 3.51403 15.8674 2.87175 15.2919C2.22947 14.7165 1.90663 13.9844 1.90663 13.0923C1.90663 10.6986 3.95242 9.50341 8.05079 9.50341H18.9764C18.9968 9.73835 19.0104 10.0891 19.0104 10.559C19.0104 12.4351 17.9467 13.9299 15.816 15.0434ZM39.0568 0C40.581 0 42.3026 0.259066 44.225 0.773791V6.48007H43.9426C43.9426 4.95294 43.3608 3.79737 42.2006 3.00994C41.0404 2.22252 39.6148 1.83051 37.9272 1.83051C34.2935 1.83051 31.6703 3.86214 30.0508 7.92539V13.1374C30.3094 15.9803 31.786 17.6472 34.4806 18.1381V18.3153H24.8826V18.1381C27.8597 17.5995 29.3465 15.6599 29.3465 12.3261V6.69141C29.3465 3.35764 27.8597 1.42146 24.8826 0.879463V0.702207H30.0508V6.30622H30.1563C30.9524 4.09734 32.0616 2.49522 33.4803 1.49645C34.8991 0.49768 36.7568 0 39.0534 0H39.0568ZM68.6931 0.691522V12.3089C68.6931 15.6409 70.1786 17.5794 73.1532 18.1176V18.2948H67.9893V12.6973H67.7786C65.953 16.898 62.8731 19 58.5387 19C55.6797 19 53.5142 18.1688 52.0388 16.4994C50.5634 14.8334 49.8257 12.3805 49.8257 9.14055V6.67739C49.8257 4.93989 49.3872 3.59758 48.5101 2.64706C47.633 1.69655 46.4296 1.10375 44.91 0.868679V0.691522H50.5668V8.43533C50.5668 13.951 53.2252 16.7072 58.5421 16.7072C63.0158 16.7072 66.1638 14.8198 67.9928 11.0382V5.89722C67.8534 4.41864 67.3536 3.27052 66.5004 2.44606C65.6437 1.625 64.515 1.09694 63.111 0.861866V0.684708H68.6965L68.6931 0.691522ZM73.838 16.7493C76.3005 18.2509 79.3999 19 83.1294 19C86.3685 19 88.9672 18.4927 90.9256 17.4712C92.8841 16.4531 93.865 15.04 93.865 13.2319C93.865 12.5747 93.7253 12.0129 93.4426 11.543C93.16 11.0731 92.7853 10.6918 92.3153 10.3989C91.8453 10.1061 91.1675 9.86093 90.2751 9.66004C89.3827 9.46255 88.4802 9.30932 87.564 9.20377C86.6478 9.09821 85.4523 8.98925 83.9741 8.87007C80.6873 8.63513 78.4053 8.28782 77.1281 7.83154C75.8509 7.37527 75.2106 6.60574 75.2106 5.52635C75.2106 3.13262 77.9081 1.93746 83.3065 1.93746C88.1396 1.93746 91.3173 3.00323 92.8432 5.13817H93.0203V1.9C90.5306 0.633333 87.4107 0 83.6573 0C80.5817 0 78.2044 0.432437 76.5287 1.30072C74.8495 2.169 74.0117 3.4595 74.0117 5.17222C74.0117 6.22778 74.3931 7.06882 75.1561 7.68853C75.919 8.31165 76.968 8.75771 78.3066 9.0267C79.6451 9.2957 81.4979 9.50341 83.8685 9.64301C87.1757 9.85412 89.4645 10.1878 90.7315 10.6441C91.9985 11.1004 92.632 11.9176 92.632 13.0889C92.632 15.7414 89.6654 17.066 83.7289 17.066C78.9196 17.066 75.6806 16.0002 74.0151 13.8652H73.838V16.7493ZM118 18.1422C118 18.1422 113.914 17.5905 113.55 12.8418V9.85412C113.55 6.63979 112.778 4.19498 111.232 2.51631C109.686 0.837635 107.484 0 104.629 0C102.427 0 100.538 0.534588 98.9608 1.60376C97.3806 2.67294 96.2626 4.24946 95.6067 6.33674L95.9227 6.61936C97.2311 3.73531 100.052 2.29158 104.385 2.29158C109.37 2.29158 112.146 4.48441 112.707 8.87007H101.89C96.9966 8.87007 94.5498 10.5011 94.5498 13.7597C94.5498 15.5167 95.2227 16.831 96.5684 17.6993C97.9142 18.5642 99.5691 19 101.537 19C104.323 19 106.746 18.4416 108.806 17.3281C110.832 16.2292 112.158 14.7313 112.779 12.8279V18.3152H118V18.1422ZM112.809 12.7348V12.7554L112.803 12.7547L112.809 12.7348ZM101.612 16.7152C104.82 16.7152 107.487 16.1602 109.618 15.0434C111.749 13.9299 112.812 12.4351 112.812 10.559C112.812 10.0891 112.799 9.73835 112.778 9.50341H101.853C97.7544 9.50341 95.7087 10.6986 95.7087 13.0923C95.7087 13.9844 96.0315 14.7165 96.6738 15.2919C97.3161 15.8674 98.0501 16.2487 98.8691 16.436C99.6881 16.6233 100.602 16.7186 101.608 16.7186L101.612 16.7152Z" fill="#FCFDFD"/>
</svg>
