<svg width="35" height="10" viewBox="0 0 35 10" fill="none" xmlns="http://www.w3.org/2000/svg">
<path d="M5.53711 7.34375C5.53711 7.14453 5.50586 6.96875 5.44336 6.81641C5.38477 6.66016 5.2793 6.51953 5.12695 6.39453C4.97852 6.26953 4.77148 6.15039 4.50586 6.03711C4.24414 5.92383 3.91211 5.80859 3.50977 5.69141C3.08789 5.56641 2.70703 5.42773 2.36719 5.27539C2.02734 5.11914 1.73633 4.94141 1.49414 4.74219C1.25195 4.54297 1.06641 4.31445 0.9375 4.05664C0.808594 3.79883 0.744141 3.50391 0.744141 3.17188C0.744141 2.83984 0.8125 2.5332 0.949219 2.25195C1.08594 1.9707 1.28125 1.72656 1.53516 1.51953C1.79297 1.30859 2.09961 1.14453 2.45508 1.02734C2.81055 0.910156 3.20703 0.851562 3.64453 0.851562C4.28516 0.851562 4.82812 0.974609 5.27344 1.2207C5.72266 1.46289 6.06445 1.78125 6.29883 2.17578C6.5332 2.56641 6.65039 2.98438 6.65039 3.42969H5.52539C5.52539 3.10938 5.45703 2.82617 5.32031 2.58008C5.18359 2.33008 4.97656 2.13477 4.69922 1.99414C4.42188 1.84961 4.07031 1.77734 3.64453 1.77734C3.24219 1.77734 2.91016 1.83789 2.64844 1.95898C2.38672 2.08008 2.19141 2.24414 2.0625 2.45117C1.9375 2.6582 1.875 2.89453 1.875 3.16016C1.875 3.33984 1.91211 3.50391 1.98633 3.65234C2.06445 3.79688 2.18359 3.93164 2.34375 4.05664C2.50781 4.18164 2.71484 4.29688 2.96484 4.40234C3.21875 4.50781 3.52148 4.60938 3.87305 4.70703C4.35742 4.84375 4.77539 4.99609 5.12695 5.16406C5.47852 5.33203 5.76758 5.52148 5.99414 5.73242C6.22461 5.93945 6.39453 6.17578 6.50391 6.44141C6.61719 6.70312 6.67383 7 6.67383 7.33203C6.67383 7.67969 6.60352 7.99414 6.46289 8.27539C6.32227 8.55664 6.12109 8.79688 5.85938 8.99609C5.59766 9.19531 5.2832 9.34961 4.91602 9.45898C4.55273 9.56445 4.14648 9.61719 3.69727 9.61719C3.30273 9.61719 2.91406 9.5625 2.53125 9.45312C2.15234 9.34375 1.80664 9.17969 1.49414 8.96094C1.18555 8.74219 0.9375 8.47266 0.75 8.15234C0.566406 7.82812 0.474609 7.45312 0.474609 7.02734H1.59961C1.59961 7.32031 1.65625 7.57227 1.76953 7.7832C1.88281 7.99023 2.03711 8.16211 2.23242 8.29883C2.43164 8.43555 2.65625 8.53711 2.90625 8.60352C3.16016 8.66602 3.42383 8.69727 3.69727 8.69727C4.0918 8.69727 4.42578 8.64258 4.69922 8.5332C4.97266 8.42383 5.17969 8.26758 5.32031 8.06445C5.46484 7.86133 5.53711 7.62109 5.53711 7.34375ZM14.8875 4.63672V5.55664H10.2703V4.63672H14.8875ZM10.4461 0.96875V9.5H9.31523V0.96875H10.4461ZM15.8719 0.96875V9.5H14.7469V0.96875H15.8719ZM25.65 4.96484V5.50391C25.65 6.14453 25.5699 6.71875 25.4098 7.22656C25.2496 7.73438 25.0191 8.16602 24.7184 8.52148C24.4176 8.87695 24.0562 9.14844 23.6344 9.33594C23.2164 9.52344 22.7477 9.61719 22.2281 9.61719C21.7242 9.61719 21.2613 9.52344 20.8395 9.33594C20.4215 9.14844 20.0582 8.87695 19.7496 8.52148C19.4449 8.16602 19.2086 7.73438 19.0406 7.22656C18.8727 6.71875 18.7887 6.14453 18.7887 5.50391V4.96484C18.7887 4.32422 18.8707 3.75195 19.0348 3.24805C19.2027 2.74023 19.4391 2.30859 19.7437 1.95312C20.0484 1.59375 20.4098 1.32031 20.8277 1.13281C21.2496 0.945312 21.7125 0.851562 22.2164 0.851562C22.7359 0.851562 23.2047 0.945312 23.6227 1.13281C24.0445 1.32031 24.4059 1.59375 24.7066 1.95312C25.0113 2.30859 25.2437 2.74023 25.4039 3.24805C25.568 3.75195 25.65 4.32422 25.65 4.96484ZM24.5309 5.50391V4.95312C24.5309 4.44531 24.4781 3.99609 24.3727 3.60547C24.2711 3.21484 24.1207 2.88672 23.9215 2.62109C23.7223 2.35547 23.4781 2.1543 23.1891 2.01758C22.9039 1.88086 22.5797 1.8125 22.2164 1.8125C21.8648 1.8125 21.5465 1.88086 21.2613 2.01758C20.9801 2.1543 20.7379 2.35547 20.5348 2.62109C20.3355 2.88672 20.1812 3.21484 20.0719 3.60547C19.9625 3.99609 19.9078 4.44531 19.9078 4.95312V5.50391C19.9078 6.01562 19.9625 6.46875 20.0719 6.86328C20.1812 7.25391 20.3375 7.58398 20.5406 7.85352C20.7477 8.11914 20.9918 8.32031 21.273 8.45703C21.5582 8.59375 21.8766 8.66211 22.2281 8.66211C22.5953 8.66211 22.9215 8.59375 23.2066 8.45703C23.4918 8.32031 23.732 8.11914 23.9273 7.85352C24.1266 7.58398 24.277 7.25391 24.3785 6.86328C24.4801 6.46875 24.5309 6.01562 24.5309 5.50391ZM31.6898 6.1543H29.4105V5.23438H31.6898C32.1313 5.23438 32.4887 5.16406 32.7621 5.02344C33.0355 4.88281 33.2348 4.6875 33.3598 4.4375C33.4887 4.1875 33.5531 3.90234 33.5531 3.58203C33.5531 3.28906 33.4887 3.01367 33.3598 2.75586C33.2348 2.49805 33.0355 2.29102 32.7621 2.13477C32.4887 1.97461 32.1313 1.89453 31.6898 1.89453H29.6742V9.5H28.5434V0.96875H31.6898C32.3344 0.96875 32.8793 1.08008 33.3246 1.30273C33.7699 1.52539 34.1078 1.83398 34.3383 2.22852C34.5688 2.61914 34.684 3.06641 34.684 3.57031C34.684 4.11719 34.5688 4.58398 34.3383 4.9707C34.1078 5.35742 33.7699 5.65234 33.3246 5.85547C32.8793 6.05469 32.3344 6.1543 31.6898 6.1543Z" fill="#FCFDFD"/>
</svg>
